PathFileType	4	(X/Y/Z)	C:/Users/opensim2020/Desktop/walking_exp_matlab/subject01_walking04_straight_04.trc																																																																																																																															
DataRate	CameraRate	NumFrames	NumMarkers	Units	OrigDataRate	OrigDataStartFrame	OrigNumFrames																																																																																																																											
100	100	6	43	mm	100	2906	279																																																																																																																											
Frame#	Time	LFHD			RFHD			LBHD			RBHD			C7			T10			CLAV			STRN			RBAK			LSHO			LUPA			LELB			LFRM			LWRA			LWRB			LFIN			RSHO			RUPA			RELB			RFRM			RWRA			RWRB			RFIN			LASI			RASI			LPSI			RPSI			LTHI			LKNE			LTIB			LANK			LHEE			LTOE			RTHI			RKNE			RTIB			RANK			RHEE			RTOE			*39			*40			*41			*42		
		X1	Y1	Z1	X2	Y2	Z2	X3	Y3	Z3	X4	Y4	Z4	X5	Y5	Z5	X6	Y6	Z6	X7	Y7	Z7	X8	Y8	Z8	X9	Y9	Z9	X10	Y10	Z10	X11	Y11	Z11	X12	Y12	Z12	X13	Y13	Z13	X14	Y14	Z14	X15	Y15	Z15	X16	Y16	Z16	X17	Y17	Z17	X18	Y18	Z18	X19	Y19	Z19	X20	Y20	Z20	X21	Y21	Z21	X22	Y22	Z22	X23	Y23	Z23	X24	Y24	Z24	X25	Y25	Z25	X26	Y26	Z26	X27	Y27	Z27	X28	Y28	Z28	X29	Y29	Z29	X30	Y30	Z30	X31	Y31	Z31	X32	Y32	Z32	X33	Y33	Z33	X34	Y34	Z34	X35	Y35	Z35	X36	Y36	Z36	X37	Y37	Z37	X38	Y38	Z38	X39	Y39	Z39	X40	Y40	Z40	X41	Y41	Z41	X42	Y42	Z42	X43	Y43	Z43
																																																																																																																																		
210	2.09	164.89635	1653.65942	-1509.10181	185.36867	1654.06384	-1396.23206	44.31726	1621.23914	-1495.40454	62.68935	1621.14624	-1375.02881	-7.86965	1421.44092	-1460.44788	-44.32406	1127.60742	-1445.33472	134.92207	1350.44177	-1458.00513	176.52859	1197.51855	-1465.93091	-63.12486	1224.4552	-1383.61438	76.43964	1381.78503	-1619.70618	74.38439	1202.85107	-1714.79858	101.37129	1052.45618	-1734.24316	202.95471	994.06683	-1755.44019	336.81384	966.00244	-1732.36133	302.36499	923.8938	-1757.28625	383.33698	913.43689	-1771.33655	67.86544	1380.6167	-1306.72449	-19.78874	1190.26624	-1212.13171	-36.64201	1068.15649	-1206.1604	-33.19832	948.92511	-1172.09558	25.12859	819.31726	-1183.08618	-21.61117	828.77191	-1148.65833	1.18338	746.74847	-1145.09155	120.667	922.43848	-1566.41235	145.02498	926.99347	-1350.14148	-58.34042	932.82861	-1488.58984	-40.27777	931.75769	-1345.36609	29.40236	595.24139	-1603.50476	-10.42222	463.64926	-1583.3031	-107.498	299.20541	-1583.07886	-187.98608	95.92638	-1522.9137	-237.29707	79.75867	-1468.88989	-52.49069	32.40527	-1529.18372	167.10854	601.14081	-1274.77588	231.76863	460.19696	-1308.17493	242.99921	287.96762	-1295.38257	306.09256	85.29815	-1336.62988	277.68298	32.87226	-1388.81653	452.4823	92.478	-1338.68994	175.35742	1689.51831	-1417.31421	-1973.03357	1023.80365	3102.0752	-2012.51575	1021.94067	3140.65771	NaN	NaN	NaN
211	2.1	175.09554	1652.94702	-1507.42371	195.61545	1653.32104	-1394.53088	54.54455	1620.61938	-1493.6781	72.89951	1620.51025	-1373.53796	2.33361	1420.6123	-1458.62634	-33.73142	1126.79114	-1443.95374	145.39059	1350.05139	-1456.57336	186.83968	1196.91748	-1464.6366	-52.70038	1223.53845	-1382.12976	86.62543	1381.41467	-1618.01868	84.82856	1202.72144	-1713.40076	112.0179	1052.43201	-1733.42065	213.99677	994.71478	-1754.56641	347.97989	967.47028	-1731.4021	313.82553	925.16302	-1756.38513	394.77356	915.25708	-1770.4458	78.14839	1379.67883	-1305.05188	-9.71538	1189.30859	-1210.87354	-26.84217	1067.32495	-1205.12048	-23.82227	947.99036	-1171.28455	33.8466	818.19653	-1181.89148	-13.2475	827.82257	-1147.79407	9.11044	745.53882	-1144.16199	131.2204	922.02228	-1566.17395	156.39038	926.32501	-1349.8623	-47.44286	932.18121	-1487.53186	-28.97093	930.95239	-1344.31628	38.03707	595.36981	-1603.62378	-2.64046	464.05154	-1583.67346	-102.39793	300.97485	-1583.70728	-186.36023	98.78242	-1523.8302	-236.06725	83.87865	-1469.98767	-52.36137	32.58766	-1529.42407	178.99426	600.56628	-1275.34229	242.20242	459.0607	-1308.3501	254.20132	287.03558	-1296.05396	318.31772	84.43846	-1337.32593	289.72577	31.92865	-1389.21472	464.7442	92.29053	-1341.37598	185.68024	1688.82178	-1415.64001	-1972.93372	1023.85712	3101.99243	-2012.65637	1022.04883	3140.66528	NaN	NaN	NaN
212	2.11	185.30688	1652.29663	-1505.69373	205.97298	1652.73669	-1392.84045	64.78055	1620.02075	-1491.75073	83.25081	1619.94324	-1371.6532	12.56712	1419.91943	-1456.8219	-22.96072	1125.94226	-1442.66418	155.60008	1349.39819	-1454.83643	197.3902	1196.47461	-1463.35632	-42.20084	1222.60864	-1380.69824	96.77802	1381.12134	-1616.25146	95.14282	1202.64893	-1711.8512	122.46503	1052.55652	-1732.42053	224.7236	995.23859	-1753.50256	358.76627	968.52435	-1730.34802	324.84085	926.09308	-1755.37024	405.81018	916.50537	-1769.44434	88.36863	1378.76086	-1303.43835	0.4835	1188.26758	-1209.52271	-16.80965	1066.38	-1204.13599	-14.72297	947.16785	-1170.2063	42.83735	817.1131	-1180.67554	-4.41308	826.91559	-1146.89551	17.50665	744.2851	-1143.37927	142.05693	921.61029	-1565.55286	167.85873	925.7677	-1349.31824	-36.33933	931.57574	-1486.50928	-17.75159	930.17902	-1343.43835	47.14526	595.39655	-1603.67261	5.88828	464.08591	-1583.9762	-96.59174	302.70465	-1584.44214	-184.57376	102.07921	-1525.02393	-234.54385	88.15901	-1471.20093	-52.1165	32.62343	-1529.59656	191.27817	599.78943	-1276.19482	253.15807	457.95444	-1308.62964	264.41727	285.7926	-1296.88354	328.04401	83.01605	-1338.49304	299.21652	30.60352	-1390.23706	474.49313	90.85708	-1343.6283	196.0361	1688.2135	-1413.93396	-1973.15637	1023.36151	3101.89575	-2012.54028	1021.94568	3140.63257	NaN	NaN	NaN
213	2.12	195.56648	1651.66638	-1503.85596	216.29951	1652.09033	-1390.95215	75.03176	1619.47607	-1489.77136	93.55989	1619.40479	-1369.74524	22.84894	1419.24817	-1454.98364	-11.98991	1125.08472	-1441.32263	165.89873	1348.82593	-1453.03601	208.10388	1196.18335	-1461.97253	-31.52847	1221.60889	-1379.23096	106.98119	1380.85742	-1614.38806	105.29894	1202.75732	-1710.26282	132.69235	1052.63928	-1731.26392	235.12831	995.58551	-1752.37231	369.2009	969.15399	-1729.16406	335.40302	926.69183	-1754.3407	416.35461	917.22076	-1768.30603	98.68221	1377.8728	-1301.61694	10.86392	1187.24426	-1208.03003	-6.56733	1065.42444	-1202.96448	-4.79081	946.10815	-1169.24792	51.39463	815.81714	-1179.45813	4.75945	825.80084	-1145.87573	26.11168	743.07269	-1142.55029	153.12703	921.13507	-1564.8877	179.45953	925.29877	-1348.5979	-24.98488	930.99701	-1485.52295	-6.3221	929.39728	-1342.66345	56.79579	595.2514	-1603.66479	14.70772	464.14529	-1584.31799	-90.36255	304.38074	-1584.98584	-182.46062	105.31441	-1526.16614	-233.18402	92.91251	-1473.03772	-52.14415	32.37202	-1529.80945	204.18951	599.5954	-1277.05078	264.23093	456.94489	-1309.08179	273.68677	284.01984	-1297.9679	335.1955	80.95372	-1340.15601	306.35126	28.71656	-1392.18518	481.89206	87.78194	-1345.21167	206.36835	1687.58826	-1412.07727	-1973.13757	1023.31598	3101.93359	-2012.61304	1022.01056	3140.86328	NaN	NaN	NaN
214	2.13	205.72424	1650.99255	-1501.84387	226.63159	1651.44519	-1389.06897	85.17267	1618.87488	-1487.65784	103.68746	1619.10559	-1367.47644	33.11966	1418.44421	-1452.98584	-0.97973	1124.14954	-1440.0647	176.32967	1348.34033	-1451.23425	218.78519	1195.70483	-1460.49463	-20.77484	1220.50232	-1377.76367	117.15147	1380.59521	-1612.42273	115.44804	1202.72498	-1708.54565	142.68057	1052.72534	-1730.05432	245.17101	995.74591	-1751.14294	379.28616	969.36719	-1727.97058	345.46674	926.92395	-1753.13635	426.49323	917.42035	-1767.07996	109.1282	1376.99609	-1299.69104	21.39112	1186.12073	-1206.48132	3.88431	1064.38831	-1201.65808	4.9329	945.20807	-1168.0144	60.4026	814.13745	-1179.125	14.10902	824.72675	-1144.82996	35.09135	741.80328	-1141.69458	164.49971	920.64929	-1564.14502	191.33131	924.89807	-1347.66113	-13.46447	930.41577	-1484.5625	5.31139	928.55383	-1341.87671	66.98644	594.92902	-1603.60901	24.56897	463.9288	-1584.7467	-83.74577	306.0473	-1585.59302	-180.01947	108.78828	-1527.41467	-230.92442	97.58205	-1474.3042	-51.75859	32.44307	-1530.03027	217.01181	599.00232	-1277.8512	275.51984	455.82187	-1309.63013	282.26669	282.05716	-1299.1322	340.49576	78.35352	-1342.1925	310.73706	27.23805	-1394.57715	486.97931	83.2206	-1346.40503	216.73828	1686.98608	-1410.17383	-1973.06775	1023.29547	3101.92334	-2012.57324	1021.98126	3140.64551	NaN	NaN	NaN
215	2.14	215.74551	1650.36646	-1499.84875	236.85492	1650.80737	-1387.05884	95.26187	1618.26111	-1485.44373	113.97277	1618.50769	-1365.26233	43.40281	1417.43311	-1450.74023	10.30309	1123.12842	-1438.81714	186.93513	1347.92432	-1449.31421	229.65825	1195.35632	-1458.93945	-9.85133	1219.22571	-1376.26208	127.40051	1380.30188	-1610.25439	125.52269	1202.79272	-1706.75684	152.33315	1052.77698	-1728.71619	254.8698	995.69861	-1749.83044	388.98563	969.23193	-1726.6571	355.10452	926.81598	-1751.91406	436.22461	917.12604	-1765.79895	119.55724	1376.04956	-1297.6095	32.01899	1184.9137	-1204.80103	14.51129	1063.29065	-1200.27832	15.25005	944.12372	-1166.85156	70.68597	812.979	-1177.9176	23.96721	823.55048	-1143.80286	44.61328	740.3866	-1140.80701	176.21994	920.17816	-1563.32727	203.55243	924.44824	-1346.54773	-1.59079	929.82684	-1483.50891	17.33637	927.54047	-1341.06873	77.74284	594.42633	-1603.46204	34.89169	463.38147	-1584.97437	-76.41669	307.71936	-1586.33484	-177.34077	112.43135	-1528.73389	-228.4574	102.76296	-1475.65845	-51.69937	32.51243	-1530.42432	229.70132	598.43811	-1278.65527	287.0238	454.73694	-1310.31067	290.25171	279.93362	-1300.41431	344.22821	75.69084	-1344.28491	312.54523	26.21319	-1396.43738	490.4588	77.4235	-1347.35889	226.88426	1686.37207	-1408.13928	-1973.25354	1023.25293	3101.90454	-2012.47339	1021.91858	3140.74976	NaN	NaN	NaN
